<?xml version="1.0" encoding="UTF-8"?>
<svg width="293px" height="396px" viewBox="0 0 293 396" version="1.1" xmlns="http://www.w3.org/2000/svg" xmlns:xlink="http://www.w3.org/1999/xlink">
    <!-- Generator: Sketch 42 (36781) - http://www.bohemiancoding.com/sketch -->
    <title>Fibo</title>
    <desc>Created with Sketch.</desc>
    <defs>
        <rect id="path-1" x="4" y="0" width="239" height="342"></rect>
        <mask id="mask-2" maskContentUnits="userSpaceOnUse" maskUnits="objectBoundingBox" x="-27" y="-27" width="293" height="396">
            <rect x="-23" y="-27" width="293" height="396" fill="white"></rect>
            <use xlink:href="#path-1" fill="black"></use>
        </mask>
    </defs>
    <g id="Page-1" stroke="none" stroke-width="1" fill="none" fill-rule="evenodd">
        <g id="Desktop-HD-Copy-11" transform="translate(-557.000000, -3682.000000)">
            <g id="Fibo" transform="translate(580.000000, 3709.000000)">
                <g id="Mr.Fibo" transform="translate(0.000000, 20.000000)">
                    <g id="fibonacci" fill-rule="nonzero" fill="#00FF82">
                        <path d="M46,24 L46,27 L44.5,27.25 L43.9444,27.3889 L42,27.8055 L40,28.1945 L39,28.3889 L38,28.6389 L37.0556,28.8333 L36.0556,29.1667 L35.5,29.25 L34,30 L34,33 L35.25,33.6945 L35.6389,34.0833 L36.3611,34.6945 L37,35.3333 L38.4167,36.6667 L39.2222,37.3055 L41.0278,38.3611 L42,38.6945 L43,38.8889 L43.9444,38.9722 L44.9444,39 L47,39 L46.8889,40.5 L46.3611,42.0555 L45.3611,44 L44.8333,45 L44.25,46 L43.75,47 L42.5278,49 L41.75,50 L39.9722,51.9167 L38,53.6111 L37,54.3889 L35.0278,56.0833 L33.3056,58 L32.1111,60 L31.3056,62 L30.9167,63 L30.4722,64 L29.6111,66 L29.3056,67 L29.1389,69 L29.7222,70.9722 L30.3333,71.8889 L32.0278,73.3611 L33,73.8889 L34,74.3056 L35,74.6667 L37,75.3889 L38,75.8333 L39,76.2778 L41,77.4722 L43,79.0556 L44.9722,80.7778 L46.7778,82.3056 L47.6111,83 L48.3611,83.6944 L49.1389,84.4167 L50.6111,86.0833 L51.3056,87.0278 L52.6111,89 L53.75,91 L54.25,92 L55.3611,94 L55.9167,95 L56.6944,97 L56.8889,98 L57,99 L57.2222,101 L57.3889,102 L57.8611,104 L58.1667,105 L58.4444,106 L59.1667,108 L59.5278,109 L60,111 L60.1944,112 L60.6944,114 L61.3889,116 L61.8056,117 L62.1667,118 L62.5278,119 L62.9444,121 L63.0556,122 L63.4722,124 L63.8333,125 L64.5278,127 L64.9444,129 L65.0556,130 L65.4722,132 L65.8333,133 L66.6111,135 L67.3333,137 L67.6667,138 L68.3333,139.972 L69.0833,141.778 L70.0556,143.389 L70.6389,144.222 L71.75,146.028 L72.25,147 L73.4444,149 L74.1667,150 L74.8611,151 L75.6389,152 L76.3889,153 L78,154.972 L79.5833,156.778 L80.2778,157.611 L80.9167,158.389 L82.0278,160 L82.5833,160.806 L83.8611,162.389 L84.5556,163.194 L85.8056,164.806 L86.3889,165.583 L87.6944,166.972 L88.4167,167.583 L90.0833,168.5 L90.9722,168.75 L92.5,168.972 L94,169 L93.8889,167.583 L93.2778,166.333 L91.8889,164.889 L90.0556,163.694 L89.5,163.361 L88,163 L87.9167,161.5 L87.5278,159.944 L87.1667,159 L86.4722,157 L86.25,156.056 L86.0278,154.5 L86,153 L87.5,152.972 L89.0556,152.778 L91,152.389 L92,152.25 L93,152.167 L94.9444,152.389 L95.9444,152.611 L96.5,152.75 L98,153 L97.6389,151.5 L96.6667,150.056 L94.9722,148.722 L94,148.306 L93,148.028 L91.0556,147.611 L89.5,147.25 L88,147 L88,142 L99,142 L103,142 L105,141.972 L106,141.917 L108,141.611 L109,141.389 L111,141.083 L111.944,141.028 L112.944,141 L115,141 L114.472,139.583 L113.5,138.444 L112.806,137.944 L111.472,137.278 L110,137 L109.222,138.139 L108.694,138.333 L107.889,138.722 L106.972,138.889 L106,138.972 L104,139 L102,139 L100,138.889 L99,138.694 L97.0556,138 L96.0556,137.611 L95.5,137.333 L94,137 L93,139 L93,140 L91.5,139.722 L90.0556,139.111 L89.3056,138.556 L88.7778,138.222 L88,137 L85.9444,137.028 L84.9444,137.083 L83.0556,137.389 L81.5,137.75 L80,138 L79.9167,136.5 L79.7778,136 L79.5833,135 L79,133 L81,132 L80.75,130.5 L80.3889,128.944 L80.0833,127.056 L80,125 L81.5,125.75 L82.0556,126.194 L84,127.306 L86,127.861 L87.9444,127.778 L88.9444,127.583 L91,127 L91,124 L92.5,123.75 L94.0556,123.389 L96,123.083 L97,123.028 L98.9444,123 L101,123 L101,121 L100,120 L97.9444,120 L96.9444,120.028 L96,120.083 L94,120.389 L93,120.611 L91.0556,120.917 L89,121 L88.25,122.167 L87.8056,122.444 L86.6944,123.556 L86.3611,123.833 L86,125 L84.5,124.222 L83.9444,123.694 L82.9444,122.889 L81.1111,121 L80.3333,120 L79.7222,119 L79.1389,117 L79.1111,116 L79.3889,114 L79.6111,113 L79.8056,112 L80.2222,110 L80.4722,109 L80.8333,108 L81.5278,106 L81.7778,105 L82.2778,103 L82.6389,102 L83.6111,100 L84.0833,99 L84.5,98.056 L84.9167,96.5 L85,95 L83.75,95.3611 L83.3333,95.6944 L81.8333,96.806 L81.4167,97.25 L80,98 L79.6389,99.472 L78.7222,100.75 L78.3889,101.222 L77,102 L76.9167,103.5 L76.7778,104.056 L76.3889,106 L76.1944,107 L75.7222,109 L75,111 L74.5833,112 L73.8611,114 L73.5278,114.972 L72.5,116.778 L70.9167,118.278 L69,119.361 L68.0556,119.694 L66.5,119.972 L65,120 L65,117.944 L64.9722,116 L64.9167,115 L64.6111,113 L64.3889,112 L64.1667,110 L64.3889,108 L64.6111,107 L64.7778,106 L65.0556,104 L65.4167,102.056 L66,100 L68,101 L68,102 L70.0556,102 L71.0278,101.972 L71.9167,101.889 L73.5,101.333 L74.4722,100.389 L75,99 L72.9444,98.417 L71,98.083 L70.0556,98.028 L69.0556,98 L67,98 L66.6389,96.611 L66.3333,96.278 L65.3889,95.3611 L64,95 L64,91 L66.0556,90.9722 L67.0556,90.9167 L68.9444,90.6111 L70.5,90.25 L72,90 L71.5,92.0278 L71.5556,92.9722 L72.5,94.5 L74.0833,95.5 L76,95.8889 L77.9722,95.6667 L78.8889,95.2778 L79.6667,94.7222 L80.6389,93.4722 L81,92 L80,92 L78,93 L78.7222,91.8611 L79.25,91.6667 L81,91 L80,89 L80,88 L78.5,87.9167 L77.9444,87.7778 L76.9444,87.6111 L76,87.3889 L74,87.1111 L73,87.1389 L71,87.6111 L70.0556,88 L69.0556,88.3889 L68.5,88.6667 L67,89 L68.3611,87.1667 L68.9444,86.3889 L69.3611,85.6667 L69.6667,85.25 L70,84 L72.0556,84 L74,84 L75,84 L77,84.0833 L79,84.5 L80.9722,85.5 L81.8611,86.25 L83.0556,88.0278 L83.3056,90 L83.25,90.9444 L83.3333,91.9444 L83.3056,92.5 L84,94 L86,94 L86.5833,91.9444 L86.9167,90 L86.9722,88 L86.9167,87 L86.6111,85 L86.3889,84.0556 L86.2222,83.0556 L86.0833,82.5 L86,81 L84.5556,80.75 L83.4444,80.4167 L82,80 L82,76 L79.9444,76 L78,75.9167 L76,75.5833 L75,75.3056 L74,75 L72,74.4167 L71,74.25 L70,74.1667 L68,74.4722 L66,75.25 L65.0556,75.75 L64.0556,76.1667 L63.5,76.5 L62,77 L62.7222,75.5 L62.75,74.9444 L62.9444,73.9444 L63,72 L63,70 L63.0833,68 L63.5,66 L64.5,64.0278 L65.25,63.1111 L66.0833,62.3333 L67.9444,61.3333 L68.9444,61.1111 L71,61 L71.75,59.8333 L72.2222,59.5555 L72.8889,58.9722 L74.3611,57.9167 L75.75,56.6389 L76.3056,55.8333 L76.6389,55.4167 L77,54 L78.5,53.9167 L80.0556,53.5278 L82,52.75 L83,52.25 L85,51.4722 L86,51.25 L87,51.0833 L88,51.0278 L90,50.9722 L92,50.7778 L94,50.3889 L95,50.1945 L97,49.8055 L98,49.6111 L99,49.3889 L101,49.0833 L102,49.0278 L104,49 L105,49 L107,49 L112,49 L114,49 L115,49.0278 L116,49.0833 L118,49.3889 L119,49.6111 L121,49.9445 L122,50.0555 L124,50.3889 L126,50.8611 L127,51.1389 L129,51.6389 L131,52.1667 L132,52.4722 L133.889,53.4445 L134.694,54.1945 L135.222,54.5833 L136,56 L142,56 L142.5,57.5 L142.833,58.0278 L143.278,58.9445 L144.417,60.2778 L145.583,60.8889 L147,61 L147.111,62.5 L147.694,64.0555 L148.222,65 L149.306,67 L149.889,69 L149.972,70 L150,71 L150,73 L149.972,75 L149.917,76 L149.611,78 L149.222,80 L149.083,81 L149,83 L149,84 L149.028,86 L149.111,87 L149.611,89 L150.389,91 L150.972,93 L151.389,95 L151.611,96 L151.917,98 L151.972,99 L152,100.944 L152,103 L155,103 L155,106.056 L155,108 L155.028,110 L155.083,111 L155.222,112 L155.722,114 L156.639,115.889 L157.306,116.667 L158.111,117.278 L159.028,117.667 L161,117.861 L163,117.361 L164,116.917 L164.944,116.389 L165.944,115.889 L166.5,115.528 L168,115 L168.333,116.5 L168.333,117.056 L167.972,119 L167.472,120 L166.778,121 L165.222,123 L164.5,124 L163.583,126 L163.472,127 L163.639,129 L163.917,131 L164,133 L164.028,135 L164.083,136 L164.389,138 L164.611,139 L164.917,141 L165,142 L165.306,144 L166,146 L166.389,146.944 L166.889,148.5 L167,150 L169,151 L170,151 L170,154 L168.778,154.361 L168.417,154.722 L167.778,155.333 L167.194,156.111 L166.611,157.028 L165.306,159 L164.583,160 L163.806,161 L162.194,163 L161.417,164 L160,165.972 L158.583,167.75 L157.778,168.528 L156,169.833 L155.111,170.472 L153.722,172.028 L153.111,173.5 L153,175 L151.5,175.333 L150.944,175.611 L149,176.417 L147,177.139 L146,177.444 L144.111,178.278 L142.722,179.417 L142.361,179.778 L142,181 L140.5,180.278 L138.944,180.167 L137,180.639 L136,181.083 L134,182.167 L133,182.75 L131,183.778 L130,184.222 L129,184.778 L127,185.75 L126,186.167 L124,187.056 L122,187.972 L120,188.694 L119,188.889 L117,189 L116,188.972 L115,188.917 L113,188.528 L111.056,187.806 L110.5,187.5 L109,187 L108.944,184.944 L108.861,183 L108.861,182 L109.083,181 L109.361,180.028 L110.472,178.25 L112.083,176.833 L113.028,176.194 L113.972,175.611 L115.667,174.361 L116.639,173.25 L117,172 L119.056,171.889 L120.056,171.694 L122,170.889 L124,169.611 L126,168.167 L127,167.444 L129,166.194 L130,165.611 L132,164.306 L132.972,163.583 L134.667,161.972 L135.639,160.5 L136,159 L134.5,159.278 L132.944,159.917 L132,160.417 L130,161.583 L129,162.111 L127,163.056 L125,164 L124,164.5 L122,165.5 L120,166.5 L119,167 L117,167.972 L116,168.389 L114,168.972 L112,169.417 L111,169.694 L109,170.306 L108,170.583 L106,170.917 L105,170.972 L103,171 L102.056,171 L99,171 L99,180 L97.5,180.528 L96.9444,180.889 L95.9444,181.417 L94,182.611 L92,183.75 L91,184.25 L89,185.361 L88,185.944 L86,186.944 L84,187.806 L82.0833,188.639 L81.2222,189.056 L79.6111,190.056 L78.7778,190.611 L77.0278,191.5 L75.5,191.917 L74,192 L73.2222,193.25 L72.6944,193.667 L71.8889,194.417 L70.1111,195.861 L69.3333,196.583 L68.7222,197.333 L68.3611,197.75 L68,199 L64,199 L63.2222,200.222 L62.6944,200.583 L61.8889,201.222 L60,202.361 L59,202.944 L57,203.917 L55,204.667 L53,205.417 L51.0278,206.417 L49.2222,207.667 L48.3889,208.333 L46.7778,209.611 L45.9167,210.194 L44,211.389 L42,212.583 L41.0556,213.083 L39.5,213.722 L38,214 L37.5833,215.444 L37.25,216.556 L37,218 L35.5833,218.111 L34.3333,218.639 L32.8889,219.722 L31.6944,221.167 L31.1111,222.528 L31,224 L29.6111,224.361 L28.5556,225.333 L27.4722,227.028 L26.9167,227.972 L25.6667,229.778 L24.4167,231.389 L23.3889,233.056 L22.9444,233.944 L21.9444,235.611 L21.3611,236.389 L20.25,238.083 L19.75,239.028 L19.1667,240 L18.6111,241 L17.3889,243 L16.8056,243.972 L15.6389,245.778 L15.0556,246.611 L14.0833,248.222 L13.3056,250.028 L12.9167,251 L12.4722,252 L11.5,254 L10.4444,255.889 L9.75,256.694 L9.38889,257.222 L8,258 L7.88889,259.5 L7.38889,261.056 L6.97222,262 L6.08333,264 L5.41667,266 L5.22222,266.944 L5.02778,268.5 L5,270 L3.77778,270.361 L2.86111,271.333 L2.41667,272.111 L1.66667,274 L1.33333,275 L0.694444,277 L0.222222,279 L0.0833333,280 L0,282 L0,283 L0.0277778,284 L0.138889,285.917 L0.166667,286.778 L0.222222,287.611 L0.138889,289.222 L0.0555556,290.083 L0.0277778,291.028 L0,293 L0.0555556,294.972 L0.166667,296.778 L0.222222,297.611 L0.166667,298.389 L0.0555556,300.083 L0,302 L0,304 L0,306 L0,308 L0.0277778,309 L0.0555556,309.972 L0.166667,311.778 L0.222222,312.611 L0.166667,313.389 L0.111111,315.083 L0.166667,317 L0.222222,317.944 L0.166667,319.5 L0,321 L1.5,321.694 L2.02778,321.639 L2.94444,321.667 L4.22222,321.139 L5,320 L6.08333,321.139 L7.27778,321.722 L8.08333,321.889 L9.02778,321.972 L11,322 L13,322 L14,322 L15.9722,321.944 L17.7778,321.833 L18.6111,321.778 L19.3889,321.833 L21.0833,321.944 L23,322 L25,322 L30,322 L45,322 L156,322 L189,322 L192,322 L193,322 L194.972,321.944 L195.917,321.861 L197.583,321.75 L198.889,321.583 L199.361,321.278 L199.667,321.111 L200,320 L201.083,321.139 L202.278,321.722 L203.083,321.889 L204.028,321.972 L206,322 L207,322 L209,322 L215,322 L217,322 L218,322 L220,321.917 L222,321.611 L224,321.222 L226,321.111 L228,321.389 L229,321.611 L231,321.917 L232,321.972 L233,322 L235,322 L236,322 L239,322 L246,322 L268,322 L268,239 L266.583,238.222 L266.194,237.694 L265.417,236.917 L264.833,236.056 L263.528,234.389 L262.75,233.611 L260.972,231.917 L259,230 L257.111,228 L255.722,226.056 L255.111,224.5 L255,223 L253.583,222.25 L253.167,221.778 L252.361,221.111 L251.694,220.389 L250.306,219.083 L249.583,218.528 L248,217.389 L246.472,215.917 L245.833,215.056 L244.556,213.389 L243.833,212.611 L242.361,210.944 L241.611,210.056 L239.917,208.417 L238.028,207 L237.083,206.306 L236.222,205.611 L235.389,204.861 L233.778,203.361 L231.972,201.778 L231,200.944 L229,199.222 L227.028,197.611 L225.222,195.944 L223.639,194.222 L222.139,192.722 L220.611,191.528 L218.944,190.389 L218.083,189.694 L216.722,188.028 L216.361,187.5 L216,186 L214.5,185.917 L212.972,185.5 L211.222,184.583 L209.611,183.417 L208.778,182.889 L206.972,181.917 L205,180.722 L204,180 L202.028,178.611 L201.083,178.028 L199.444,177.028 L198.667,176.611 L198.25,176.333 L197,176 L197.25,174.5 L197.611,173 L197.75,172.5 L198,171 L194,171 L194.722,169.861 L195.25,169.667 L197,169 L197,166.944 L196.972,165.944 L196.917,165 L196.611,163 L196.389,162 L196.083,160.056 L196.028,159.056 L196,157 L193,157 L193,152 L195,152 L194.972,150.5 L194.778,148.944 L194.389,147 L194.083,145 L194.028,144 L194,142 L194,141 L194,139 L193.917,137 L193.611,135 L193.389,134 L193.083,132.056 L193.028,131.056 L193,129 L191.833,128.222 L191.583,127.694 L191.056,126.889 L190.389,125 L190.139,124 L189.611,122 L189.306,121 L189,120 L188.333,118 L187.694,116 L187.417,115 L187.056,113 L186.944,112 L186.778,111 L186.611,110 L186.389,109 L186.083,107 L186.028,106 L185.972,104 L185.917,103 L185.583,101 L184.917,99 L184.028,97 L183.611,96 L183.278,95 L182.806,93 L182.611,92 L182.389,91 L182.167,89 L182.361,87 L182.528,86 L182.528,84 L182.167,82.0556 L181.833,81.0556 L181.75,80.5 L181,79 L179.861,79.7778 L179.639,80.3056 L179.194,81.1111 L178.639,83 L178.417,84 L178.389,86 L179.056,88 L179.528,89 L180.139,91 L180.222,92 L180.444,94 L180.75,96 L180.833,97 L180.611,99 L180.389,100 L180.083,102 L180.056,103 L180.083,104 L180.389,106 L180.611,107 L180.889,109 L180.889,110 L180.611,112 L180.389,113 L180.083,115 L180.028,116 L180,118 L180,119 L180,127 L180,129 L179.972,131 L179.917,132 L179.611,134 L179.417,135 L179.333,137 L179.833,139 L180.639,140.917 L181.056,141.778 L181.528,142.611 L182.5,144.111 L182.972,144.75 L183.556,145.306 L183.833,145.639 L185,146 L185,143.944 L184.972,142.944 L184.917,142 L184.611,140 L184.389,139 L184.083,137 L184.028,136 L184,134.056 L184,132 L185.222,132.778 L185.556,133.306 L186.139,134.111 L186.972,136 L187.583,138 L187.944,140 L188.056,141 L188.389,143 L188.611,144 L189,146 L189.222,147 L189.472,148 L189.833,149 L190.528,151 L190.75,152 L190.917,153 L191,155 L191,156 L191,158 L191,159 L191.028,160 L191.083,161 L191.389,163 L191.611,164 L191.917,166 L191.972,167 L192,168.944 L192,169.944 L192,172 L190.75,171.25 L190.333,170.806 L188.833,169.694 L188.417,169.361 L187,169 L186.917,167.5 L186.778,166.944 L186.611,165.944 L186.222,164.056 L186.083,163.5 L186,162 L184.75,161.222 L184.361,160.694 L183.667,159.889 L182.528,158.083 L181.472,156.389 L180.361,154.778 L179.194,152.972 L178.083,151.056 L177.639,150.056 L177.333,149.5 L177,148 L175.583,147.639 L174.361,146.667 L173.111,144.972 L172.639,144 L172.111,142 L172.028,141 L171.972,139 L171.917,138 L171.611,136 L171.389,135 L171.083,133 L171.028,132 L171,131 L171,129 L171,128 L170.944,126.028 L170.833,124.222 L170.778,123.389 L170.833,122.611 L170.861,121.778 L170.972,119.972 L171,118 L170.972,117 L170.917,116 L170.611,114 L170.389,113 L170.083,111 L170.028,110 L170,109 L170,107 L170,102 L170,100 L169.917,98 L169.639,96 L169.472,95 L169.472,93 L169.639,92 L169.917,90 L170,88 L170,87 L170,84 L170,77 L170,72 L170,71 L169.972,69 L169.917,68 L169.611,66 L169.389,65 L169.083,63 L169.028,62 L169,60 L168.972,58 L168.917,57 L168.611,55 L168.389,54 L168.083,52 L168.028,51 L168,49 L168,48 L167.917,46 L167.778,45 L167.583,44 L167.306,43 L166.694,41 L166.417,40.0555 L166.083,38.5 L166,37 L164.583,35.9167 L163.417,34.75 L162.833,34.0278 L161.583,32.7222 L160.417,32.1111 L159,32 L159.111,33.4167 L159.333,33.8333 L159.694,34.6667 L160.806,36.1945 L161.417,36.9722 L162.556,38.2778 L163.611,38.8889 L165,39 L164,41 L163,41 L163.667,42.75 L163.861,43.2778 L165,44 L164.278,45.5 L164.25,46.0555 L164.056,47.0555 L164.028,48 L164,49 L164,51 L164,52 L164,54 L164,60 L162,60 L162,66 L164.056,67.4722 L165.028,68.2778 L165.889,69.0833 L167.278,70.9444 L167.639,71.5 L168,73 L167,71 L166,71 L165,73 L164,73 L163.667,71.5 L162.889,70.0278 L161.611,68.3889 L160.861,67.6111 L159.361,65.9445 L158.611,65.0555 L156.917,63.3889 L155.972,62.6111 L155,61.8055 L154,61 L152,59.3889 L151,58.6111 L149,56.9445 L148,56.0833 L146,54.6945 L145,54.2222 L143,53.3889 L141,52.3055 L139,51.0833 L137,50 L136,49.5 L135,49.0278 L133,48.3055 L132,48.1111 L130,48 L128,48 L127,47.9722 L126,47.9167 L124,47.6111 L123,47.3889 L121,47.0833 L120,47.0278 L118,47 L117,47 L115,47 L113,46.9722 L112,46.9167 L110,46.6111 L109,46.3889 L107,46.0833 L106,46.0555 L105,46.0833 L103,46.3889 L102,46.6111 L100,46.9167 L99,46.9722 L97,47 L96.0556,47 L93,47 L93.3611,45.6111 L94.3333,44.5833 L96.0278,43.8055 L97.9444,43.6111 L98.9444,43.6945 L101,44 L101.778,42.8611 L102.306,42.6667 L103.111,42.2778 L105,42.0278 L107,42 L108.944,42 L112,42 L112,40 L109.944,40 L108.944,39.9722 L108,39.9167 L106,39.6111 L105,39.3889 L103.056,39.0833 L102.056,39.0278 L100,39 L101.139,37.9167 L101.722,36.7222 L101.889,35.9167 L101.972,35.0278 L102,34.0555 L102,32 L105.056,32 L106,32 L108,31.9722 L109,31.8889 L110.917,31.4722 L111.722,31.2222 L112.528,31.0278 L112.917,30.9167 L114,31 L114.778,29.7778 L115.306,29.4167 L116.917,28.2222 L117.694,27.5833 L118.222,27.2222 L119,26 L121,27.3333 L121.556,27.6945 L123,28 L123.778,26.8611 L124.306,26.6667 L125.111,26.2778 L127,26.0278 L129,26 L130,26 L132,26 L135,26 L136,26 L137,26 L139,26.0833 L141,26.4722 L142,26.8333 L144,27.6111 L146,28.3333 L147,28.6667 L148,29 L150,29.5833 L151,29.7778 L152,29.9167 L154,29.9167 L155.944,29.5833 L158,29 L157.556,27.5278 L156.972,26.25 L156.806,25.7778 L156,25 L155.278,25.7222 L155.25,26.25 L155,28 L153.5,27.5 L152,26.8055 L151.5,26.5 L150,26 L152,24.8333 L152.556,24.4722 L154,24 L154,20 L151.944,20 L150.944,19.9722 L150,19.9167 L148,19.6111 L147,19.3889 L145,19.0833 L144,19.0278 L142,19 L141,19 L139,19 L137,18.9722 L136,18.9167 L134,18.6111 L133.056,18.3889 L132.056,18.2222 L131.5,18.0833 L130,18 L129.722,15.9445 L129.722,14.9445 L129.944,14 L130.417,13.0278 L131.139,12.0833 L133,10.5 L134.944,9.5 L135.944,9.25 L138,9 L137.333,7.5555 L136.667,6.4445 L136,5 L138.056,4.91666 L140,4.61111 L141.944,4.22223 L142.5,4.08334 L144,4 L144.444,5.47223 L145.056,6.7222 L145.583,7.2778 L145.833,7.6389 L147,8 L147,3 L144.944,2.91666 L143,2.61111 L141,2.13889 L140,1.86111 L138,1.38889 L137,1.19446 L135,0.80554 L134,0.61111 L132,0.25 L131,0.16666 L129,0.38889 L127,0.77777 L126,0.91666 L124,0.97223 L123,0.91666 L121,0.61111 L120,0.38889 L118,0.08334 L117,0.02777 L115,0 L114,0 L112,0 L110,0 L109,0 L107,0.02777 L106,0.08334 L104,0.47223 L102,1.16666 L101,1.52777 L99,1.94446 L98,2.05554 L96,2.47223 L94,3.16666 L93,3.55554 L91,4.13889 L90,4.38889 L88,5.08334 L87,5.52777 L85,6.4167 L83,7.1389 L82,7.4445 L80,8.25 L79,8.75 L77,9.5555 L76,9.8333 L74,10.4445 L72,11.2778 L71,11.8333 L70,12.3889 L68,13.5833 L66,14.5833 L64,15.4167 L63,15.8889 L61,16.9445 L59,17.9167 L58,18.3055 L57,18.6667 L55,19.3333 L53,20.1111 L52,20.6111 L50,21.8611 L49.0556,22.5278 L48.0556,23.0833 L47.5,23.4722 L46,24 L46,24 Z M148,4 L148,5 L150,6 L150,4 L148,4 L148,4 Z M134,6 L134,8 L132,8 L132,6 L134,6 L134,6 Z M130,7 L129.222,7.7222 L128.694,7.75 L127.889,7.9445 L126,8.1111 L124,8.6389 L122,9.6111 L120,10.5 L119,10.7778 L117,11.2222 L116,11.5 L114,12.3889 L113.056,12.9167 L112.056,13.3611 L111.5,13.6667 L110,14 L110.278,12.5278 L110.944,11.1945 L111.5,10.5 L113.083,9.4722 L115,8.8611 L116,8.6389 L118,8.1945 L119,8 L121,7.6111 L122,7.3889 L124,7.0833 L125,7.0278 L126.944,7 L127.944,7 L130,7 L130,7 Z M141,7 L141.722,7.7222 L142.25,7.75 L144,8 L143.278,7.2778 L142.75,7.25 L141,7 L141,7 Z M149,10 L150.444,9.75 L151.556,9.4167 L153,9 L152.222,8.2778 L151.722,8.2778 L151,8.1667 L149.722,8.6667 L149.361,8.8611 L149,10 L149,10 Z M120,20 L119.222,20.6945 L118.694,20.6667 L117.889,20.75 L116.972,20.6667 L115,20.6111 L114,20.6945 L112,20.9167 L111,20.9722 L109,21 L108,21.0278 L107,21.0833 L105,21.3889 L104,21.6111 L102,21.9167 L100,22.0278 L99,22.0833 L97,22.3889 L96,22.6111 L95,22.8055 L93,23.1945 L92,23.3889 L91,23.6111 L90,23.8055 L88,24.1945 L87,24.3889 L86,24.6389 L84,25.1667 L83,25.4722 L81.0278,26.5 L79.2222,28.0833 L78.3889,29.0278 L77.6111,30 L76,32 L74.3889,33.9167 L73.6389,34.7778 L72.8611,35.6111 L71.3611,37.2222 L70.6111,38.0833 L68.9167,39.9722 L67.0556,41.6667 L65.5,42.6389 L64,43 L63.8889,44.4167 L63.3611,45.6667 L62.2778,47.2222 L61.5833,48.0833 L59.9444,50 L58.2222,51.9722 L56.6111,53.7778 L54.9167,55.3055 L53,56.5833 L51,57.5833 L49.0556,58.3333 L48.5,58.5555 L47,59 L47.7778,57.5278 L48.3056,57.0278 L49.1111,56.1667 L50.0278,55.4167 L51.9444,54.1111 L53.5,53.3333 L55,53 L54.8889,51.5 L54.6944,50.9445 L54.3889,49.9445 L54,49 L53.3056,47.0555 L53.0278,45.5 L53,44 L51.75,43.6667 L51.3333,43.3611 L50.5833,42.8889 L49.25,41.6389 L48.6944,40.8333 L48.3611,40.4167 L48,39 L49.5,38.7222 L51.0278,38.0555 L51.8889,37.5 L52.6667,36.8055 L53.6389,35.4722 L54,34 L55,34 L56,36 L56.7778,34.9445 L57.3056,34.6389 L58.1111,34.0555 L58.9722,33.6389 L60.5,33.1111 L62,33 L62,29 L63,29 L64,27 L65.5,27.3056 L67.0556,27.0833 L68,26.6945 L70,25.6945 L70.9444,25.3333 L72.5,25.0278 L74,25 L74,23 L78,23 L78,21 L80.0556,20.9722 L81.0556,20.9167 L83,20.5833 L84.8889,19.9445 L85.6944,19.4167 L86.2222,19.1667 L87,18 L89.0556,18.0278 L90.0556,18.0833 L92,18.3889 L93,18.6111 L95,18.9167 L96,18.9722 L98,19 L99,19 L101,19 L102,19 L104,18.9167 L105,18.7778 L107,18.4722 L108,18.4445 L109,18.4722 L111,18.7778 L112,18.9167 L113,18.9722 L115,19.0278 L116,19.0833 L117.944,19.4167 L120,20 L120,20 Z M163,28 L163.778,28.8333 L164.306,29.0555 L166.028,30.0833 L167.917,31.4167 L169.5,33.0278 L170.472,34.5 L171,36 L172.5,36.25 L174.056,36.6111 L175.944,36.9167 L178,37 L177.639,35.7778 L177.278,35.4167 L175.889,34.1667 L174.972,33.5555 L173,32.1667 L172,31.4445 L170.111,30.2222 L169.306,29.5833 L168.778,29.2222 L168,28 L163,28 L163,28 Z M72,31 L73,31 L75,30 L74.25,29.3055 L73.2222,29.3333 L72.6944,29.6945 L72.3611,29.8611 L72,31 L72,31 Z M156.667,32.3333 L156.667,32.6667 L157.333,32.6667 L157.333,32.3333 L156.667,32.3333 L156.667,32.3333 Z M84,47 L84,49 L82,49 L82,47 L84,47 L84,47 Z M81,48 L81,50 L77,50 L77,48 L81,48 L81,48 Z M187,60 L187.25,61.5 L187.611,63 L187.778,63.9445 L187.917,64.5 L188,66 L188.722,65.2222 L188.75,64.6945 L188.944,63.8889 L188.889,62.1111 L188.722,61.3333 L188.139,60.3611 L187,60 L187,60 Z M188,70 L188,74 L188.722,73.2222 L188.722,72.7222 L188.889,72 L188.722,70.7778 L188,70 L188,70 Z M64,72 L64,74 L66,74 L66,72 L64,72 L64,72 Z M179,72 L179,76 L179.722,75.2222 L179.722,74.7222 L179.889,74 L179.722,72.7778 L179,72 L179,72 Z M104,77 L104,82 L102.611,82.1111 L101.556,82.7222 L100.5,84.1111 L99.6111,85.9444 L99.3333,86.5 L99,88 L103,88 L103.25,89.4444 L103.583,90.5556 L104,92 L105.5,92.0278 L106.944,92.2778 L107.694,92.6667 L108.222,92.8611 L109,94 L110.5,93.6667 L111.056,93.3611 L112.056,92.9167 L113.944,91.8889 L114.5,91.5278 L116,91 L116.083,92.5 L116.222,93 L116.417,94 L117,96 L118.5,96.25 L120.056,96.611 L121,96.75 L122,96.806 L123.972,96.278 L125.694,94.9444 L126.222,94.4722 L127,93 L128.5,93.7222 L129.056,93.75 L130.056,93.9444 L130.944,93.9722 L131.944,94 L134,94 L134.417,92.5556 L134.75,91.4444 L135,90 L133.583,88.5 L133.167,87.9444 L132.333,86.9722 L131.611,86.0833 L130,84.4167 L129.194,83.7222 L127.639,82.5278 L126.889,82.0278 L126.222,81.4444 L125.75,81.1667 L125,80 L122.944,79.9167 L121.056,79.6111 L119.5,79.25 L118,79 L119.5,78.2778 L120.056,78.25 L121.056,78.0556 L122,78.0278 L124,78 L126,78.0833 L128,78.3889 L129.944,78.7778 L131.5,78.9722 L133,79 L132.639,77.7778 L131.667,76.8889 L130.889,76.5 L129,76 L128,75.8056 L127,75.6111 L125,75.1389 L124,74.8611 L123,74.6389 L122,74.3889 L120,74.0833 L119,74.0278 L117,74 L115,74 L113,74 L112,74.0278 L110,74.3056 L108,75.0833 L107.056,75.6111 L106.056,76.1111 L105.5,76.4722 L104,77 L104,77 Z M142.667,75.3333 L143,75.6667 L143.333,75.6667 L143,75.3333 L142.667,75.3333 L142.667,75.3333 Z M70,77 L70.8056,78.5 L70.9722,79 L71.5556,80.5 L72,82 L70.5,82.0833 L68.9444,82.4167 L68,82.6944 L66.0556,83.3333 L65.5,83.5556 L64,84 L65,86 L64,87 L63.4167,84.9444 L63.0833,83.0556 L63.0278,82.0556 L63,80 L64.1389,79.2778 L64.3333,78.75 L65,77 L70,77 L70,77 Z M131,92 L129.861,91.6944 L129.667,91.3333 L129,90 L127.5,89.9722 L125.944,89.75 L125,89.5278 L124,89.1667 L122,88.4722 L120,88.0833 L119,88.0556 L118,88.0833 L116,88.4167 L114.056,89 L113.056,89.3333 L112.5,89.5556 L111,90 L111.361,88.5 L112.333,86.9722 L113.111,86.1111 L115,84.7222 L117,84.1111 L118,84.0278 L119,84.0278 L120,84.0833 L122,84.4167 L124,85 L126,85.6944 L126.972,86.1111 L127.917,86.6389 L129.5,88.1111 L130.056,88.9722 L130.722,90.5 L131,92 L131,92 Z M125,92 L124,93 L125,92 L125,92 Z M109,97 L109,98 L107,99 L107.778,99.833 L108.306,100.056 L109.111,100.556 L111,101.389 L113,101.889 L114,101.972 L116,101.917 L117.889,101.556 L118.694,101.139 L119.222,100.972 L120,100 L118.5,99.278 L117.944,99.25 L116.944,99.028 L115,98.694 L114,98.389 L112.056,97.611 L111.056,97.306 L110.5,97.111 L109,97 L109,97 Z M82,140 L82.8056,141.5 L82.9722,142.056 L83.3333,143.056 L83.7778,144.944 L83.9167,145.5 L84,147 L78,147 L78,140 L82,140 L82,140 Z M201,145 L201,150 L201.722,149.222 L201.75,148.694 L201.917,147.917 L201.75,146.306 L201.722,145.778 L201,145 L201,145 Z M135.667,183.667 L135.667,184 L135.333,184.333 L135.333,184 L135.667,183.667 L135.667,183.667 Z M175,232.333 L175.333,232.667 L174.667,232.667 L175,232.333 L175,232.333 Z M173,234 L174,236 L172,236 L172,234 L173,234 L173,234 Z M176,235 L175,236 L176,235 L176,235 Z M174,237.333 L174.333,237.667 L173.667,237.667 L174,237.333 L174,237.333 Z M210,244 L209,245 L210,244 L210,244 Z M167,246 L166,247 L167,246 L167,246 Z M229.667,247.667 L229.667,248 L229.333,248.333 L229.333,247.667 L229.667,247.667 L229.667,247.667 Z M168,248 L167,249 L168,248 L168,248 Z M233,248 L232,249 L233,248 L233,248 Z M205,249.333 L205.333,249.667 L204.667,249.667 L205,249.333 L205,249.333 Z M208,249 L207,250 L208,249 L208,249 Z M211,249 L210,250 L211,249 L211,249 Z M230,250 L232,250.25 L232.556,250.278 L234,251 L233.222,251.639 L232.694,251.528 L231.944,251.556 L230.5,251.25 L229,251 L230,250 L230,250 Z M264,250 L263.278,250.722 L262.75,250.75 L261,251 L261.722,250.278 L262.25,250.25 L264,250 L264,250 Z M200,251.333 L200.333,251.667 L199.667,251.667 L200,251.333 L200,251.333 Z M208.667,251.667 L208.667,252 L208.333,252.333 L208.333,251.667 L208.667,251.667 L208.667,251.667 Z M230.667,252.667 L230.667,253 L230.333,253.333 L230.333,252.667 L230.667,252.667 L230.667,252.667 Z M206.667,253.667 L206.667,254 L206.333,254.333 L206.333,253.667 L206.667,253.667 L206.667,253.667 Z M204,254 L203,255 L204,254 L204,254 Z M235,254 L234.278,254.722 L233.75,254.75 L232,255 L232.722,254.278 L233.25,254.25 L235,254 L235,254 Z M266,254.333 L266.333,254.667 L265.667,254.667 L266,254.333 L266,254.333 Z M229,255 L228,256 L229,255 L229,255 Z M182.667,256.667 L182.667,257 L182.333,257.333 L182.333,257 L182.667,256.667 L182.667,256.667 Z M203.667,256.667 L203.667,257 L203.333,257.333 L203.333,256.667 L203.667,256.667 L203.667,256.667 Z M209.667,256.667 L209.667,257 L209.333,257.333 L209.333,256.667 L209.667,256.667 L209.667,256.667 Z M258,257 L257,258 L258,257 L258,257 Z M57,258.333 L57.3333,258.667 L56.6667,258.667 L57,258.333 L57,258.333 Z M52,259 L51,260 L52,259 L52,259 Z M201,259.333 L201.333,259.667 L200.667,259.667 L201,259.333 L201,259.333 Z M208,259 L207,260 L208,259 L208,259 Z M210,259.333 L210.333,259.667 L209.667,259.667 L210,259.333 L210,259.333 Z M143,260 L142,261 L143,260 L143,260 Z M240,265 L239,266 L240,265 L240,265 Z M202,268 L201,269 L202,268 L202,268 Z M236,268 L235,269 L236,268 L236,268 Z M137,269 L136,270 L137,269 L137,269 Z M177,270 L176,271 L177,270 L177,270 Z M236,270.333 L236.333,270.667 L235.667,270.667 L236,270.333 L236,270.333 Z M46,272 L45,273 L46,272 L46,272 Z M236,272 L235,273 L236,272 L236,272 Z M239,272 L244,272 L243.222,272.722 L242.694,272.75 L241.889,272.944 L241.028,272.972 L240.056,273 L238,273 L239,272 L239,272 Z M242,274 L245,274 L246,275 L241,275 L242,274 L242,274 Z M176,275.333 L176.333,275.667 L175.667,275.667 L176,275.333 L176,275.333 Z M230,275.333 L230.333,275.667 L229.667,275.667 L230,275.333 L230,275.333 Z M236,275 L235.278,275.722 L234.75,275.75 L233,276 L233.722,275.278 L234.25,275.25 L236,275 L236,275 Z M230,277.333 L230.333,277.667 L229.667,277.667 L230,277.333 L230,277.333 Z M238,277.333 L238.333,277.667 L237.667,277.667 L238,277.333 L238,277.333 Z M4,278 L3,279 L4,278 L4,278 Z M156,279 L155,280 L156,279 L156,279 Z M159,279 L158,280 L159,279 L159,279 Z M25,280 L24,281 L25,280 L25,280 Z M32,280 L31,281 L32,280 L32,280 Z M247,280 L246,281 L247,280 L247,280 Z M38,281 L37,282 L38,281 L38,281 Z M43,281 L42,282 L43,281 L43,281 Z M154,281 L153,282 L154,281 L154,281 Z M235,281.333 L235.333,281.667 L234.667,281.667 L235,281.333 L235,281.333 Z M240,281 L239,282 L240,281 L240,281 Z M243,281.333 L243.333,281.667 L242.667,281.667 L243,281.333 L243,281.333 Z M225,282 L224,283 L225,282 L225,282 Z M228,282.333 L228.333,282.667 L227.667,282.667 L228,282.333 L228,282.333 Z M232,282.333 L232.333,282.667 L231.667,282.667 L232,282.333 L232,282.333 Z M24,283 L23,284 L24,283 L24,283 Z M244,283 L243.278,283.722 L242.75,283.75 L241,284 L241.722,283.278 L242.25,283.25 L244,283 L244,283 Z M28,284 L27,286 L26,286 L25,284 L28,284 L28,284 Z M155,284 L154,285 L155,284 L155,284 Z M227.667,284.667 L227.667,285.333 L227.333,285.333 L227.333,285 L227.667,284.667 L227.667,284.667 Z M231,284 L230,285 L231,284 L231,284 Z M239,284.333 L239.333,284.667 L238.667,284.667 L239,284.333 L239,284.333 Z M235,286 L235,288 L233,288 L233,286 L235,286 L235,286 Z M238,286.333 L238.333,286.667 L237.667,286.667 L238,286.333 L238,286.333 Z M176,287 L175,288 L176,287 L176,287 Z M224,287 L223,289 L222,289 L222,287 L224,287 L224,287 Z M230,287.333 L230.333,287.667 L229.667,287.667 L230,287.333 L230,287.333 Z M27.6667,288.667 L27.6667,289.333 L27.3333,289.333 L27.3333,289 L27.6667,288.667 L27.6667,288.667 Z M241,288.333 L241.333,288.667 L240.667,288.667 L241,288.333 L241,288.333 Z M6,289 L5,290 L6,289 L6,289 Z M231,289 L230.694,290.139 L230.333,290.333 L229,291 L230,292 L230,294 L228.861,293.222 L228.667,292.694 L228.278,291.944 L228.028,290.5 L228,289 L231,289 L231,289 Z M233,289.333 L233.333,289.667 L232.667,289.667 L233,289.333 L233,289.333 Z M238,289 L237,290 L238,289 L238,289 Z M244,290 L243.222,290.972 L242.694,291.139 L241.944,291.556 L240.5,291.917 L239,292 L239.778,291.194 L240.306,291.028 L241.056,290.667 L242.5,290.25 L244,290 L244,290 Z M3,291 L2,292 L3,291 L3,291 Z M73,291 L74,293 L72,293 L72,291 L73,291 L73,291 Z M238,293 L236.25,292.333 L235.722,292.139 L235,291 L236.75,291.667 L237.278,291.861 L238,293 L238,293 Z M80,292 L79,293 L80,292 L80,292 Z M205,292 L204,293 L205,292 L205,292 Z M233,292.333 L233.333,292.667 L232.667,292.667 L233,292.333 L233,292.333 Z M227,293 L226,294 L227,293 L227,293 Z M240,293 L239,294 L240,293 L240,293 Z M20,294 L19,295 L20,294 L20,294 Z M47,295 L46,296 L47,295 L47,295 Z M79,295.333 L79.3333,295.667 L78.6667,295.667 L79,295.333 L79,295.333 Z M226,295 L226,297 L224,297 L224,295 L226,295 L226,295 Z M229,295 L228,296 L229,295 L229,295 Z M232,295.333 L232.333,295.667 L231.667,295.667 L232,295.333 L232,295.333 Z M243,295.333 L243.333,295.667 L242.667,295.667 L243,295.333 L243,295.333 Z M34,296.333 L34.3333,296.667 L33.6667,296.667 L34,296.333 L34,296.333 Z M74,296.333 L74.3333,296.667 L73.6667,296.667 L74,296.333 L74,296.333 Z M83,296 L82.2778,297.139 L81.75,297.333 L80,298 L81,296 L83,296 L83,296 Z M239,296 L238,297 L239,296 L239,296 Z M152,297 L151,298 L152,297 L152,297 Z M154,297 L153,298 L154,297 L154,297 Z M157,297 L156,298 L157,297 L157,297 Z M177,297 L176,298 L177,297 L177,297 Z M182,297 L181,298 L182,297 L182,297 Z M243,297.333 L243.333,297.667 L242.667,297.667 L243,297.333 L243,297.333 Z M27,298.333 L27.3333,298.667 L26.6667,298.667 L27,298.333 L27,298.333 Z M225,300 L223.25,299.333 L222.722,299.139 L222,298 L223.389,298.111 L224.333,298.667 L224.639,298.861 L225,300 L225,300 Z M229,300 L227.25,299.333 L226.722,299.139 L226,298 L227.389,298.111 L228.333,298.667 L228.639,298.861 L229,300 L229,300 Z M238,298.333 L238.333,298.667 L237.667,298.667 L238,298.333 L238,298.333 Z M82,299 L82,301 L80,301 L80,299 L82,299 L82,299 Z M152.667,299.667 L152.667,300 L152.333,300.333 L152.333,300 L152.667,299.667 L152.667,299.667 Z M156,299 L155,301 L154,301 L154,299 L156,299 L156,299 Z M247,299 L246,300 L247,299 L247,299 Z M161,300 L160,301 L161,300 L161,300 Z M178,300 L177,301 L178,300 L178,300 Z M220,301.333 L220.333,301.667 L219.667,301.667 L220,301.333 L220,301.333 Z M223,301.333 L223.333,301.667 L222.667,301.667 L223,301.333 L223,301.333 Z M228,301 L227.278,301.722 L226.75,301.75 L225,302 L225.722,301.278 L226.25,301.25 L228,301 L228,301 Z M3,302 L2,303 L3,302 L3,302 Z M80.6667,302.667 L80.6667,303.333 L80.3333,303.333 L80.3333,303 L80.6667,302.667 L80.6667,302.667 Z M154,302 L153,303 L154,302 L154,302 Z M156,302.333 L156.333,302.667 L155.667,302.667 L156,302.333 L156,302.333 Z M179,302 L178,303 L179,302 L179,302 Z M182,302 L181,303 L182,302 L182,302 Z M197,302 L196,303 L197,302 L197,302 Z M240,302 L239,303 L240,302 L240,302 Z M36,303.333 L36.3333,303.667 L35.6667,303.667 L36,303.333 L36,303.333 Z M226,303 L225.222,303.972 L224.75,304.139 L223.472,304.722 L222,305 L222.361,303.861 L223.278,303.278 L224.528,303.028 L226,303 L226,303 Z M235,303.333 L235.333,303.667 L234.667,303.667 L235,303.333 L235,303.333 Z M33,304.333 L33.3333,304.667 L32.6667,304.667 L33,304.333 L33,304.333 Z M154.667,304.667 L154.667,305 L154.333,305.333 L154.333,305 L154.667,304.667 L154.667,304.667 Z M160.667,304.667 L160.667,305 L160.333,305.333 L160.333,305 L160.667,304.667 L160.667,304.667 Z M152,305 L151,306 L152,305 L152,305 Z M177,305 L176,306 L177,305 L177,305 Z M180,305 L179,306 L180,305 L180,305 Z M183,305 L182,306 L183,305 L183,305 Z M17,306 L16,307 L17,306 L17,306 Z M80,306.333 L80.3333,306.667 L79.6667,306.667 L80,306.333 L80,306.333 Z M75,307.333 L75.3333,307.667 L74.6667,307.667 L75,307.333 L75,307.333 Z M153,307 L152,308 L153,307 L153,307 Z M156,307 L155,308 L156,307 L156,307 Z M159,307 L158,308 L159,307 L159,307 Z M173,307 L172,308 L173,307 L173,307 Z M176,307 L175,308 L176,307 L176,307 Z M183.667,307.667 L183.667,308 L183.333,308.333 L183.333,308 L183.667,307.667 L183.667,307.667 Z M93.6667,308.667 L93.6667,309.333 L93.3333,309.333 L93.3333,308.667 L93.6667,308.667 L93.6667,308.667 Z M11,309 L10.5556,310.472 L9.94444,311.722 L9.41667,312.278 L9.16667,312.639 L8,313 L8.41667,311.556 L8.75,310.444 L9,309 L11,309 L11,309 Z M16,309 L15,310 L16,309 L16,309 Z M160.667,309.667 L160.667,310 L160.333,310.333 L160.333,309.667 L160.667,309.667 L160.667,309.667 Z M215,309.333 L215.333,309.667 L214.667,309.667 L215,309.333 L215,309.333 Z M12.6667,310.667 L12.6667,311 L12.3333,311.333 L12.3333,311 L12.6667,310.667 L12.6667,310.667 Z M24,310 L23,311 L24,310 L24,310 Z M180,310 L179,311 L180,310 L180,310 Z M183,310 L182,311 L183,310 L183,310 Z M195,310 L195,312 L193,312 L193,311 L195,310 L195,310 Z M7,311 L6,312 L7,311 L7,311 Z M18,311 L17,312 L18,311 L18,311 Z M201,311 L200,312 L201,311 L201,311 Z M15,312.333 L15.3333,312.667 L14.6667,312.667 L15,312.333 L15,312.333 Z M29,312 L28,313 L29,312 L29,312 Z M155,312.333 L155.333,312.667 L154.667,312.667 L155,312.333 L155,312.333 Z M158,312.333 L158.333,312.667 L157.667,312.667 L158,312.333 L158,312.333 Z M192,312 L191,313 L192,312 L192,312 Z M23,313 L23,315 L21,315 L21,314 L23,313 L23,313 Z M31,313 L30,314 L31,313 L31,313 Z M217,313 L216,314 L217,313 L217,313 Z M238,313 L237,314 L238,313 L238,313 Z M6,314.333 L6.33333,314.667 L5.66667,314.667 L6,314.333 L6,314.333 Z M12,314 L11.2222,315.056 L10.75,315.361 L9.47222,316.306 L8,317 L8.36111,315.778 L9.27778,314.889 L10.5278,314.278 L12,314 L12,314 Z M49,314 L48,315 L49,314 L49,314 Z M53,314 L53,316 L51,316 L51,315 L53,314 L53,314 Z M62,314.333 L62.3333,314.667 L61.6667,314.667 L62,314.333 L62,314.333 Z M153.667,314.667 L153.667,315.333 L153.333,315.333 L153.333,315 L153.667,314.667 L153.667,314.667 Z M193,314 L192,315 L193,314 L193,314 Z M224,314.333 L224.333,314.667 L223.667,314.667 L224,314.333 L224,314.333 Z M20,315 L19,316 L20,315 L20,315 Z M29,315 L28,316 L29,315 L29,315 Z M157,315 L156,316 L157,315 L157,315 Z M179,315 L178,316 L179,315 L179,315 Z M183.667,315.667 L183.667,316.333 L183.333,316.333 L183.333,316 L183.667,315.667 L183.667,315.667 Z M199,315 L198,316 L199,315 L199,315 Z M216,315 L215,316 L216,315 L216,315 Z M219,315.333 L219.333,315.667 L218.667,315.667 L219,315.333 L219,315.333 Z M3,316 L2,317 L3,316 L3,316 Z M60,316 L59,317 L60,316 L60,316 Z M79,316 L78,317 L79,316 L79,316 Z M213,316 L212,317 L213,316 L213,316 Z M231,316 L230,317 L231,316 L231,316 Z M233,316.333 L233.333,316.667 L232.667,316.667 L233,316.333 L233,316.333 Z M6,317 L5,319 L4,319 L4,318 L6,317 L6,317 Z M11,317.333 L11.3333,317.667 L10.6667,317.667 L11,317.333 L11,317.333 Z M16,317.333 L16.3333,317.667 L15.6667,317.667 L16,317.333 L16,317.333 Z M68,317 L67,318 L68,317 L68,317 Z M71,317 L70,319 L69,319 L69,318 L71,317 L71,317 Z M76,317 L75,318 L76,317 L76,317 Z M151.667,317.667 L151.667,318 L151.333,318.333 L151.333,317.667 L151.667,317.667 L151.667,317.667 Z M155,317 L154,318 L155,317 L155,317 Z M158,317 L157,318 L158,317 L158,317 Z M170,317 L169,318 L170,317 L170,317 Z M178,317 L177,318 L178,317 L178,317 Z M215.667,317.667 L215.667,318 L215.333,318.333 L215.333,317.667 L215.667,317.667 L215.667,317.667 Z M219,317 L218,318 L219,317 L219,317 Z M223,317 L222.278,317.722 L221.75,317.75 L220,318 L220.722,317.278 L221.25,317.25 L223,317 L223,317 Z M226,317 L226,320 L225.306,319.25 L225.306,318.194 L225.306,317.75 L226,317 L226,317 Z M237,317 L236.75,318.444 L236.417,319.556 L236,321 L235.278,320.222 L235.25,319.75 L235.056,318.944 L235,317 L237,317 L237,317 Z M240,317 L239,318 L240,317 L240,317 Z M9,318 L8,320 L7,320 L7,318 L9,318 L9,318 Z M19,318 L18,319 L19,318 L19,318 Z M146,318 L145,319 L146,318 L146,318 Z M149,318 L148,319 L149,318 L149,318 Z M195,318 L194,319 L195,318 L195,318 Z M198,318 L197,319 L198,318 L198,318 Z M233,318 L232,319 L233,318 L233,318 Z M3,319 L3,321 L1,321 L1,319 L3,319 L3,319 Z M45,319.333 L45.3333,319.667 L44.6667,319.667 L45,319.333 L45,319.333 Z M223,319 L222.222,319.75 L221.694,319.833 L220.889,320.167 L219.972,320.361 L219.056,320.611 L217.5,320.917 L216,321 L216.778,319.861 L217.306,319.667 L218.111,319.278 L219.944,319.028 L220.944,319 L223,319 L223,319 Z M229,319.333 L229.333,319.667 L228.667,319.667 L229,319.333 L229,319.333 Z M240.667,319.667 L240.667,320 L240.333,320.333 L240.333,319.667 L240.667,319.667 L240.667,319.667 Z M48,320 L47,321 L48,320 L48,320 Z M215,320 L214,321 L215,320 Z" id="Shape"></path>
                    </g>
                    <g id="Group-2" transform="translate(58.000000, 75.000000)" fill="#000000">
                        <rect id="Rectangle-2" x="5" y="53" width="9" height="21"></rect>
                        <rect id="Rectangle-2-Copy" x="65" y="53" width="9" height="21"></rect>
                        <rect id="Rectangle-2-Copy-2" transform="translate(39.500000, 69.500000) rotate(90.000000) translate(-39.500000, -69.500000) " x="35" y="35" width="9" height="69"></rect>
                        <g id="Group">
                            <rect id="Rectangle" transform="translate(15.909903, 15.909903) rotate(45.000000) translate(-15.909903, -15.909903) " x="11.4099026" y="-2.09009742" width="9" height="36"></rect>
                            <rect id="Rectangle-Copy" transform="translate(15.909903, 15.909903) scale(-1, 1) rotate(45.000000) translate(-15.909903, -15.909903) " x="11.4099026" y="-2.09009742" width="9" height="36"></rect>
                        </g>
                        <g id="Group-Copy" transform="translate(44.000000, 0.000000)">
                            <rect id="Rectangle" transform="translate(15.909903, 15.909903) rotate(45.000000) translate(-15.909903, -15.909903) " x="11.4099026" y="-2.09009742" width="9" height="36"></rect>
                            <rect id="Rectangle-Copy" transform="translate(15.909903, 15.909903) scale(-1, 1) rotate(45.000000) translate(-15.909903, -15.909903) " x="11.4099026" y="-2.09009742" width="9" height="36"></rect>
                        </g>
                    </g>
                </g>
                <use id="Rectangle-7" stroke="#000000" mask="url(#mask-2)" stroke-width="54" xlink:href="#path-1"></use>
            </g>
        </g>
    </g>
</svg>